<svg xmlns="http://www.w3.org/2000/svg" width="410" height="404" viewBox="0 0 410 404" fill="none">
  <path d="M399.641 59.524C402.789 52.426 400.62 43.784 394.258 39.229C389.461 35.723 382.645 35.086 377.242 37.188L16.8779 178.352C10.2457 180.936 6.19482 187.722 6.9558 194.793C7.72476 201.962 12.9829 207.827 20.0434 209.262L124.391 231.062L175.464 339.476C178.612 346.574 185.805 350.679 193.211 349.486C200.617 348.292 206.296 341.999 207.141 334.445L220.941 211.044L352.886 98.4011C358.638 93.546 360.488 85.27 357.34 78.1714C354.192 71.0728 346.469 67.1205 338.727 68.5648L196.866 95.6306L399.641 59.524Z" fill="url(#paint0_linear)"/>
  <path d="M292.965 32.0809L158.482 57.6015C150.111 59.2075 144.24 66.5198 144.429 75.0374C144.617 83.6381 150.881 90.528 159.275 91.8305L218.326 101.118L248.794 196.654C251.216 204.163 258.309 209.099 266.138 208.524C273.966 207.95 280.35 202.052 281.791 194.316L314.166 19.0133C315.607 11.2775 311.006 3.74475 303.461 1.24081C298.414 -0.428593 292.965 0.949359 289.16 4.83116C285.355 8.71296 284.447 14.2012 286.954 19.0478L292.965 32.0809Z" fill="url(#paint1_linear)"/>
  <defs>
    <linearGradient id="paint0_linear" x1="6.00017" y1="32.9999" x2="235" y2="344" gradientUnits="userSpaceOnUse">
      <stop stop-color="#41D1FF"/>
      <stop offset="1" stop-color="#BD34FE"/>
    </linearGradient>
    <linearGradient id="paint1_linear" x1="194.651" y1="8.81818" x2="236.076" y2="292.989" gradientUnits="userSpaceOnUse">
      <stop stop-color="#FFEA83"/>
      <stop offset="0.0833333" stop-color="#FFDD35"/>
      <stop offset="1" stop-color="#FFA800"/>
    </linearGradient>
  </defs>
</svg>
